<?xml version="1.0" encoding="UTF-8"?>
<svg id="Layer_2" data-name="Layer 2" xmlns="http://www.w3.org/2000/svg" width="1841.512" height="2022.124" xmlns:xlink="http://www.w3.org/1999/xlink" viewBox="0 0 1841.512 2022.124">
  <defs>
    <clipPath id="clippath">
      <path d="M51.513,926.326c0-13.922,71.546-27.757,72.275-41.497C144.62,492.098,459.398,177.342,852.139,156.546c13.716-.726,27.528-72.271,41.425-72.271,13.304,0,26.53,71.514,39.669,72.18,393.575,19.95,709.271,335.085,730.11,728.425.727,13.723,72.272,27.542,72.272,41.446,0,13.304-71.514,26.53-72.18,39.669-19.951,393.591-335.11,709.296-728.471,730.112-13.708.725-27.511,72.27-41.4,72.27-13.304,0-26.53-71.514-39.669-72.18-393.574-19.95-709.269-335.082-730.11-728.421-.727-13.725-72.273-27.545-72.273-41.451Z" fill="none" stroke-width="0"/>
    </clipPath>
  </defs>
  <g id="Layer_5" data-name="Layer 5">
    <g clip-path="url(#clippath)">
      <g>
        <path d="M32.507,942.359c0-465.052,425.622-820.422,890.674-820.422s842.051,376.999,842.051,842.051" fill="#bce5f5" stroke-width="0"/>
        <g>
          <polygon points="1342.573 75.997 888.815 942.684 1382.91 168.947 1342.573 75.997" fill="#faaa0f" stroke-width="0"/>
          <polygon points="1449.553 200.514 888.815 942.684 1507.427 226.821 1449.553 200.514" fill="#f7960b" stroke-width="0"/>
          <polygon points="1546.01 296.972 888.815 942.684 1586.347 332.047 1546.01 296.972" fill="#fa9127" stroke-width="0"/>
          <polygon points="1603.885 384.66 888.815 942.684 1649.483 421.489 1603.885 384.66" fill="#fc8d43" stroke-width="0"/>
          <polygon points="1688.066 460.072 888.815 942.684 1709.111 503.917 1688.066 460.072" fill="#ff885f" stroke-width="0"/>
          <polygon points="1724.895 574.067 888.815 942.684 1740.679 623.173 1724.895 574.067" fill="#ff8876" stroke-width="0"/>
          <polygon points="1715.809 699.105 888.815 942.684 1724.895 765.228 1715.809 699.105" fill="#ff888d" stroke-width="0"/>
          <polygon points="1748.049 851.115 888.815 942.684 1753.655 942.489 1748.049 851.115" fill="#ff88a4" stroke-width="0"/>
          <polygon points="1209.286 74.243 888.815 942.684 1268.915 93.534 1209.286 74.243" fill="#faaa0f" stroke-width="0"/>
          <polygon points="888.815 942.684 1144.397 72.489 1209.286 74.243 888.815 942.684" fill="#fbc348" stroke-width="0"/>
          <polygon points="1268.915 93.534 888.815 942.684 1340.819 98.796 1268.915 93.534" fill="#fbc348" stroke-width="0"/>
          <polygon points="1419.739 98.796 888.815 942.684 1449.553 200.514 1419.739 98.796" fill="#f9b548" stroke-width="0"/>
          <polygon points="1486.382 246.112 888.815 942.684 1537.241 309.248 1486.382 246.112" fill="#fbb561" stroke-width="0"/>
          <polygon points="1575.824 339.062 888.815 942.684 1652.99 353.092 1575.824 339.062" fill="#fdb47b" stroke-width="0"/>
          <polygon points="1633.699 430.258 888.815 942.684 1723.141 440.781 1633.699 430.258" fill="#ffb494" stroke-width="0"/>
          <polygon points="1709.111 503.917 888.815 942.684 1752.955 565.299 1709.111 503.917" fill="#ffb5a5" stroke-width="0"/>
          <polygon points="1740.679 623.173 888.815 942.684 1763.478 688.063 1740.679 623.173" fill="#ffb7b6" stroke-width="0"/>
          <polygon points="1724.895 765.228 888.815 942.684 1748.049 851.115 1724.895 765.228" fill="#ffb8c7" stroke-width="0"/>
          <polygon points="897.692 959.999 832.81 0 956.743 13.446 897.692 959.999" fill="#ffe048" stroke-width="0"/>
          <polyline points="888.815 942.684 1140.889 91.781 1076.584 67.812" fill="#fcbe13" stroke-width="0"/>
          <polygon points="888.815 942.684 1005.264 64.305 1076.584 67.812 888.815 942.684" fill="#fdd248" stroke-width="0"/>
          <polygon points="443.365 79.504 897.123 946.191 403.028 172.454 443.365 79.504" fill="#faaa0f" stroke-width="0"/>
          <polygon points="336.385 204.022 897.123 946.191 278.511 230.329 336.385 204.022" fill="#f7960b" stroke-width="0"/>
          <polygon points="239.928 300.479 897.123 946.191 199.591 335.555 239.928 300.479" fill="#fa9127" stroke-width="0"/>
          <polygon points="182.053 388.168 897.123 946.191 136.455 424.997 182.053 388.168" fill="#fc8d43" stroke-width="0"/>
          <polygon points="97.872 463.58 897.123 946.191 76.827 507.424 97.872 463.58" fill="#ff885f" stroke-width="0"/>
          <polygon points="61.043 577.575 897.123 946.191 45.259 626.681 61.043 577.575" fill="#ff8876" stroke-width="0"/>
          <polygon points="70.129 702.612 897.123 946.191 61.043 768.736 70.129 702.612" fill="#ff888d" stroke-width="0"/>
          <polygon points="31.974 851.115 897.123 946.191 29.352 932.396 31.974 851.115" fill="#ff88a4" stroke-width="0"/>
          <polygon points="951.014 31.828 891.854 940.605 1015.319 25.982 951.014 31.828" fill="#ffd217" stroke-width="0"/>
          <polygon points="837.963 37.414 897.123 946.191 773.658 31.568 837.963 37.414" fill="#ffd217" stroke-width="0"/>
          <polygon points="576.652 77.75 897.123 946.191 517.023 97.042 576.652 77.75" fill="#faaa0f" stroke-width="0"/>
          <polygon points="897.123 946.191 641.541 75.997 576.652 77.75 897.123 946.191" fill="#fbc348" stroke-width="0"/>
          <polygon points="517.023 97.042 897.123 946.191 445.119 102.303 517.023 97.042" fill="#fbc348" stroke-width="0"/>
          <polygon points="366.199 102.303 897.123 946.191 336.385 204.022 366.199 102.303" fill="#f9b548" stroke-width="0"/>
          <polygon points="299.556 249.62 897.123 946.191 248.696 312.756 299.556 249.62" fill="#fbb561" stroke-width="0"/>
          <polygon points="210.114 342.57 897.123 946.191 132.948 356.6 210.114 342.57" fill="#fdb47b" stroke-width="0"/>
          <polygon points="152.239 433.766 897.123 946.191 62.797 444.288 152.239 433.766" fill="#ffb494" stroke-width="0"/>
          <polygon points="76.827 507.424 897.123 946.191 32.983 568.806 76.827 507.424" fill="#ffb5a5" stroke-width="0"/>
          <polygon points="45.259 626.681 897.123 946.191 22.46 691.57 45.259 626.681" fill="#ffb7b6" stroke-width="0"/>
          <polygon points="61.043 768.736 897.123 946.191 31.974 851.115 61.043 768.736" fill="#ffb8c7" stroke-width="0"/>
          <polygon points="897.123 946.191 645.049 95.288 709.353 71.32 897.123 946.191" fill="#fcbe13" stroke-width="0"/>
          <polygon points="897.123 946.191 780.673 67.812 709.353 71.32 897.123 946.191" fill="#fdd248" stroke-width="0"/>
        </g>
        <circle cx="893.564" cy="905.811" r="110.904" fill="#ffe048" stroke-width="0"/>
        <path d="M1735.615,928.604c0,465.052-376.999,842.051-842.051,842.051S51.513,1393.656,51.513,928.604" fill="#5783ff" stroke-width="0"/>
        <g>
          <g>
            <path d="M1841.512,979.097c-79.315-67.723-248.768-119.471-362.866-133.019-114.098-13.548-258.235,70.201-357.657,119.209-134.411,66.254-311.699,129.242-473.046-8.721-89.304-76.361-137.864,279.444-255.236,256.878l693.284,104.512,755.52-338.858Z" fill="#f5f5f5" stroke-width="0"/>
            <path d="M1800.024,1043.769c-80.128-70.328-225.824-116.331-339.922-129.879-114.098-13.548-223.744,74.293-323.166,123.301-134.411,66.254-311.699,129.242-473.046-8.721-89.304-76.361-137.864,279.444-255.236,256.878l693.284,104.512,698.086-346.09Z" fill="#a0d6f2" stroke-width="0"/>
            <path d="M1774.399,1129.186c-80.128-70.328-215.79-123.108-330.684-122.024-129.345,1.22-226.065,92.938-325.486,141.946-134.411,66.254-311.699,129.242-473.046-8.721-89.304-76.361-137.864,279.444-255.236,256.878l693.284,104.512,691.168-372.591Z" fill="#a0d6f2" stroke-width="0"/>
            <path d="M1779.755,1311.281c-80.128-70.328-185.212-210.934-299.31-224.483-114.098-13.548-223.744,74.293-323.166,123.301-134.411,66.254-311.699,129.242-473.046-8.721-89.304-76.361-137.864,279.444-255.236,256.878l693.284,104.512,657.474-251.487Z" fill="#a0d6f2" stroke-width="0"/>
            <path d="M1769.232,1407.662c-80.128-70.328-185.212-210.934-299.31-224.483-114.098-13.548-223.744,74.293-323.166,123.301-134.411,66.254-311.699,129.242-473.046-8.721-89.304-76.361-137.864,279.444-255.236,256.878l693.284,104.512,657.474-251.487Z" fill="#a0d6f2" stroke-width="0"/>
          </g>
          <g>
            <path d="M27.427,924.999c87.655-48.98,279.685-85.658,381.876-71.817s193.627,60.708,273.171,131.799c102.596,91.693,151.972,230.368,262.083,314.114,85.062,64.695,195.391,91.333,302.77,97.241,198.685,10.933,403.641-47.969,542.361-179.935,0,0-520.579,750.473-973.797,610.91C292.47,1666.131,27.427,924.999,27.427,924.999Z" fill="#f5f5f5" stroke-width="0"/>
            <path d="M40.443,991.909c89.086-29.715,260.864-82.847,355.542-70.679,94.678,12.167,188.186,70.1,256.779,134.781,67.16,63.33,107.853,147.819,171.001,214.739,135.765,143.874,322.212,191.56,473.82,187.654,161.657-4.165,273.924-31.59,411.551-67.812,0,0-759.156,541.663-950.374,487.27C571.059,1824.467,40.443,991.909,40.443,991.909Z" fill="#9fb4ff" stroke-width="0"/>
            <path d="M63.808,1069.067c89.086-29.715,178.732-72.944,273.41-60.776,94.678,12.167,187.452,51.107,256.045,115.789,67.16,63.33,108.291,147.408,171.001,214.739,96.743,103.872,288.758,187.89,436.624,183.893,203.169-5.491,308.979-13.197,446.607-49.42,0,0-616.749,425.423-783.854,377.888-211.817-60.253-799.832-782.113-799.832-782.113Z" fill="#9fb4ff" stroke-width="0"/>
            <path d="M35.075,1199.396c86.835-35.763,173.3-85.046,268.59-79.409,95.29,5.637,190.519,38.114,263.392,97.932,71.35,58.568,118.159,139.623,185.345,202.489,103.648,96.984,304.466,172.953,452.146,164.536,217.064-12.37,291.658-34.947,426.473-80.536,0,0-574.316,456.273-744.291,420.326-215.454-45.565-851.655-725.339-851.655-725.339Z" fill="#9fb4ff" stroke-width="0"/>
            <path d="M0,1294.1c86.835-35.763,173.3-85.046,268.59-79.409,95.29,5.637,190.519,38.114,263.392,97.932,71.35,58.568,118.159,139.623,185.345,202.489,103.648,96.984,305.963,169.039,451.064,140.3,216.06-42.794,276.565,108.738,411.38,63.149,0,0-558.141,336.825-728.116,300.878C636.201,1973.874,0,1294.1,0,1294.1Z" fill="#9fb4ff" stroke-width="0"/>
          </g>
        </g>
      </g>
      <path d="M1155.862,941.176c-5.402-15.601-23.229-27.94-43.779-28.566-25.131-.778-50.542,16.012-54.885,36.259-6.699-11.798-26.557-15.839-42.115-10.653-15.58,5.186-26.535,17.611-31.116,30.597-4.754,13.419-3.306,27.832,3.565,40.019-4.559,3.803-10.004,7.196-13.851,12.036M1337.696,855.909c-5.964-6.979-13.981-12.403-23.207-14.974-22.991-6.439-50.002,5.791-58.321,26.384-3.652-14.067-21.111-22.797-36.54-20.722-15.45,2.053-28.199,12.835-35.222,25.649-7.217,13.224-8.968,28.89-5.229,43.39-9.097,5.553-20.657,8.859-23.315,25.541M973.681,1020.868c.8-2.831.735-8.06-3.717-17.352-8.017-16.725-23.575-32.499-44.276-38.441-20.701-5.921-45.918,1.08-51.601,17.395,5.921-21.825-20.765-47.517-48.619-46.782-27.853.735-46.501,27.637-33.968,48.986-15.212-14.348-42.266-20.939-60.547-12.014-3.241,1.577-5.985,3.673-8.189,6.137-1.513-11.863-7.023-24.158-17.373-33.472-13.246-11.906-35.135-16.617-46.091-7.52,13.375-12.792,3.673-40.58-17.676-50.585-21.328-10.004-46.372,1.469-45.594,20.895-5.661-15.601-23.402-30.381-40.861-31.138-8.579-.367-15.882,3.458-19.988,9.227-.951-.108-1.88-.173-2.831-.194,10.221-17.006,1.426-43.887-18.951-58.04-20.398-14.154-49.289-13.419-62.448,1.556,0-13.7-14.499-27.788-29.776-31.699-15.299-3.911-30.23.842-40.148,9.486-10.242,8.924-15.839,22.04-15.904,36.151-6.72.994-14.261.713-20.528,4.495.8.886,1.513,1.707,2.182,2.441-1.837.022-3.717.087-5.575.151,1.08-1.059,2.204-1.902,3.393-2.593-2.982-3.436-6.699-8.038-10.804-13.851-10.696-15.126-28.674-28.091-50.088-30.468-21.392-2.377-45.097,8.752-47.971,25.779,2.204-22.516-28.415-43.368-55.75-37.987s-41.229,35.027-25.282,53.978c-17.395-11.582-45.183-13.57-61.714-1.707-16.53,11.863-14.65,37.339,5.445,45.615-18.518.713-33.839,13.289-37.469,27.529-5.748,3.155-9.443,6.331-9.443,9.486,0,3.933,5.705,7.844,13.894,11.755l.022.022c12.9,6.137,31.959,12.273,44.751,18.41,6.461,3.068,11.323,6.158,12.965,9.248,4.927-1.469,9.94-2.917,14.996-4.387,73.404-21.155,158.994-41.207,223.863-41.877,8.103-.13,15.882.086,23.272.648,3.673.281,7.239.648,10.696,1.08,41.25,5.316,82.285,19.275,121.137,38.744.108-.843.194-1.707.238-2.572,1.167.303,2.334.54,3.522.735,0,0,.303,1.383.627,4.062,48.619,24.958,93.694,58.364,131.271,93.802,12.058,11.366,23.251,23.423,33.882,35.935,48.597,57.176,85.31,123.903,137.105,178.809,135.765,143.869,322.224,191.558,473.829,187.648,61.346-1.577,115.583-6.504,166.795-14.002,23.034-25.368,44.405-52.271,63.939-80.556-89.826,26.967-186.113,37.728-280.995,32.499-70.94-3.911-143.156-16.855-208.543-43.865-33.579-13.851-65.365-31.419-94.234-53.373-6.871-5.229-13.527-10.675-19.945-16.314-20.939-18.346-39.652-38.722-57.111-60.223-19.426-23.92-37.296-49.246-54.929-74.83-12.49-18.086-24.828-36.324-37.534-54.259,86.045,29.733,172.781,17.287,251.997-9.616,3.133-1.08,6.245-2.161,9.357-3.285,35.351-12.598,69.125-27.896,100.544-43.39,20.333-10.026,41.099-21.673,62.232-33.731,1.037-.605,2.096-1.21,3.155-1.815,47.517-27.183,96.957-56.203,147.715-73.49,14.651-5.013,29.388-9.011,44.254-11.733h.021c21.717-3.976,43.671-5.164,65.798-2.528,21.522,2.55,44.146,6.266,67.245,11.085,8.968,1.859,18.022,3.89,27.097,6.094,16.466,3.976,33.061,8.514,49.526,13.549,3.263-1.08,6.245-2.593,8.838-4.538-.519,2.42-.346,4.948.367,7.412,16.92,5.381,33.666,11.323,50.002,17.784.151-.043.302-.108.454-.173,1.037-3.565,7.066-7.153,15.234-10.718,0-.022.022-.022.022-.022,21.198-9.313,56.722-18.648,56.722-28.026,0-2.723-2.744-5.445-7.174-8.168,7.023-6.331,10.502-15.536,8.06-24.915-3.436-13.246-19.577-25.174-34.962-24.634,9.14-15.234.778-38.031-18.086-49.224-18.842-11.193-45.334-9.119-57.176,4.516-.151-11.842-13.613-23.294-27.68-25.909-14.067-2.593-27.68,2.269-36.648,10.243-8.816,7.822-13.765,18.735-14.11,30.273-14.499-5.834-35.135-6.029-43.238,1.318,0,0,2.485-3.738-8.384-13.592-10.869-9.854-26.038-17.503-40.84-17.308-14.801.195-27.745,10.199-25.39,22.602-4.17-16.25-29.69-28.415-46.48-22.17-16.79,6.245-28.303,29.507-13.005,41.607-12.202-10.779-23.665-6.623-31.681,3.295-.432.519-.8,1.08-1.124,1.642M716.476,1003.213c0-.022-.022-.022-.022-.022-.043,0-.108-.022-.151-.022,0,0,.022,0,.065-.022.108,0,.281-.022.54-.108,0,.086.043.173.087.259,0,.065,0,.13.043.195-.194-.087-.367-.195-.562-.281ZM1348.738,887.803c.108-1.167.151-2.312.151-3.457,1.534.821,3.198,1.469,4.948,1.945-1.815.324-3.522.821-5.099,1.512Z" fill="#f5f5f5" stroke-width="0"/>
    </g>
  </g>
</svg>