<?xml version="1.0" encoding="UTF-8"?>
<svg id="Layer_2" data-name="Layer 2" xmlns="http://www.w3.org/2000/svg" width="1684.103" height="1684.103" xmlns:xlink="http://www.w3.org/1999/xlink" viewBox="0 0 1684.103 1684.103">
  <defs>
    <clipPath id="clippath">
      <path d="M0,842.051c0-13.922,71.546-27.757,72.275-41.497C93.107,407.823,407.885,93.067,800.626,72.271c13.716-.726,27.528-72.271,41.425-72.271,13.304,0,26.53,71.514,39.669,72.18,393.575,19.95,709.271,335.085,730.11,728.425.727,13.723,72.272,27.542,72.272,41.446,0,13.304-71.514,26.53-72.18,39.669-19.951,393.591-335.11,709.296-728.471,730.112-13.708.725-27.511,72.27-41.4,72.27-13.304,0-26.53-71.514-39.669-72.18-393.574-19.95-709.269-335.082-730.11-728.421-.727-13.725-72.273-27.545-72.273-41.451Z" fill="none" stroke-width="0"/>
    </clipPath>
    <filter id="drop-shadow-1" filterUnits="userSpaceOnUse">
      <feOffset dx="7.362" dy="7.362"/>
      <feGaussianBlur result="blur" stdDeviation="7.362"/>
      <feFlood flood-color="#5381ea" flood-opacity=".75"/>
      <feComposite in2="blur" operator="in"/>
      <feComposite in="SourceGraphic"/>
    </filter>
  </defs>
  <g id="Layer_5" data-name="Layer 5">
    <g clip-path="url(#clippath)">
      <g>
        <path d="M-19.006,858.084C-19.006,393.032,406.616,37.663,871.668,37.663s842.051,376.999,842.051,842.051" fill="#bce5f5" stroke-width="0"/>
        <g>
          <polygon points="1291.06 -8.278 837.302 858.409 1331.397 84.672 1291.06 -8.278" fill="#faaa0f" stroke-width="0"/>
          <polygon points="1398.04 116.24 837.302 858.409 1455.915 142.546 1398.04 116.24" fill="#f7960b" stroke-width="0"/>
          <polygon points="1494.498 212.697 837.302 858.409 1534.834 247.772 1494.498 212.697" fill="#fa9127" stroke-width="0"/>
          <polygon points="1552.372 300.386 837.302 858.409 1597.97 337.215 1552.372 300.386" fill="#fc8d43" stroke-width="0"/>
          <polygon points="1636.553 375.798 837.302 858.409 1657.598 419.642 1636.553 375.798" fill="#ff885f" stroke-width="0"/>
          <polygon points="1673.382 489.793 837.302 858.409 1689.166 538.898 1673.382 489.793" fill="#ff8876" stroke-width="0"/>
          <polygon points="1664.296 614.83 837.302 858.409 1673.382 680.954 1664.296 614.83" fill="#ff888d" stroke-width="0"/>
          <polygon points="1696.536 766.84 837.302 858.409 1702.143 858.215 1696.536 766.84" fill="#ff88a4" stroke-width="0"/>
          <polygon points="1157.774 -10.032 837.302 858.409 1217.402 9.26 1157.774 -10.032" fill="#faaa0f" stroke-width="0"/>
          <polygon points="837.302 858.409 1092.884 -11.786 1157.774 -10.032 837.302 858.409" fill="#fbc348" stroke-width="0"/>
          <polygon points="1217.402 9.26 837.302 858.409 1289.307 14.521 1217.402 9.26" fill="#fbc348" stroke-width="0"/>
          <polygon points="1368.226 14.521 837.302 858.409 1398.04 116.24 1368.226 14.521" fill="#f9b548" stroke-width="0"/>
          <polygon points="1434.87 161.838 837.302 858.409 1485.729 224.973 1434.87 161.838" fill="#fbb561" stroke-width="0"/>
          <polygon points="1524.312 254.788 837.302 858.409 1601.478 268.818 1524.312 254.788" fill="#fdb47b" stroke-width="0"/>
          <polygon points="1582.186 345.984 837.302 858.409 1671.629 356.506 1582.186 345.984" fill="#ffb494" stroke-width="0"/>
          <polygon points="1657.598 419.642 837.302 858.409 1701.443 481.024 1657.598 419.642" fill="#ffb5a5" stroke-width="0"/>
          <polygon points="1689.166 538.898 837.302 858.409 1711.965 603.788 1689.166 538.898" fill="#ffb7b6" stroke-width="0"/>
          <polygon points="1673.382 680.954 837.302 858.409 1696.536 766.84 1673.382 680.954" fill="#ffb8c7" stroke-width="0"/>
          <polygon points="846.18 875.724 781.298 -84.275 905.231 -70.829 846.18 875.724" fill="#ffe048" stroke-width="0"/>
          <polyline points="837.302 858.409 1089.377 7.506 1025.072 -16.462" fill="#fcbe13" stroke-width="0"/>
          <polygon points="837.302 858.409 953.752 -19.97 1025.072 -16.462 837.302 858.409" fill="#fdd248" stroke-width="0"/>
          <polygon points="391.852 -4.771 845.61 861.916 351.516 88.179 391.852 -4.771" fill="#faaa0f" stroke-width="0"/>
          <polygon points="284.872 119.747 845.61 861.916 226.998 146.054 284.872 119.747" fill="#f7960b" stroke-width="0"/>
          <polygon points="188.415 216.205 845.61 861.916 148.078 251.28 188.415 216.205" fill="#fa9127" stroke-width="0"/>
          <polygon points="130.541 303.893 845.61 861.916 84.943 340.722 130.541 303.893" fill="#fc8d43" stroke-width="0"/>
          <polygon points="46.36 379.305 845.61 861.916 25.314 423.149 46.36 379.305" fill="#ff885f" stroke-width="0"/>
          <polygon points="9.53 493.3 845.61 861.916 -6.253 542.406 9.53 493.3" fill="#ff8876" stroke-width="0"/>
          <polygon points="18.616 618.338 845.61 861.916 9.53 684.461 18.616 618.338" fill="#ff888d" stroke-width="0"/>
          <polygon points="-19.538 766.84 845.61 861.916 -22.16 848.121 -19.538 766.84" fill="#ff88a4" stroke-width="0"/>
          <polygon points="899.501 -52.447 840.341 856.331 963.806 -58.293 899.501 -52.447" fill="#ffd217" stroke-width="0"/>
          <polygon points="786.451 -46.861 845.61 861.916 722.146 -52.707 786.451 -46.861" fill="#ffd217" stroke-width="0"/>
          <polygon points="525.139 -6.524 845.61 861.916 465.511 12.767 525.139 -6.524" fill="#faaa0f" stroke-width="0"/>
          <polygon points="845.61 861.916 590.028 -8.278 525.139 -6.524 845.61 861.916" fill="#fbc348" stroke-width="0"/>
          <polygon points="465.511 12.767 845.61 861.916 393.606 18.029 465.511 12.767" fill="#fbc348" stroke-width="0"/>
          <polygon points="314.686 18.029 845.61 861.916 284.872 119.747 314.686 18.029" fill="#f9b548" stroke-width="0"/>
          <polygon points="248.043 165.345 845.61 861.916 197.184 228.481 248.043 165.345" fill="#fbb561" stroke-width="0"/>
          <polygon points="158.601 258.295 845.61 861.916 81.435 272.325 158.601 258.295" fill="#fdb47b" stroke-width="0"/>
          <polygon points="100.727 349.491 845.61 861.916 11.284 360.014 100.727 349.491" fill="#ffb494" stroke-width="0"/>
          <polygon points="25.314 423.149 845.61 861.916 -18.53 484.531 25.314 423.149" fill="#ffb5a5" stroke-width="0"/>
          <polygon points="-6.253 542.406 845.61 861.916 -29.052 607.295 -6.253 542.406" fill="#ffb7b6" stroke-width="0"/>
          <polygon points="9.53 684.461 845.61 861.916 -19.538 766.84 9.53 684.461" fill="#ffb8c7" stroke-width="0"/>
          <polygon points="845.61 861.916 593.536 11.013 657.841 -12.955 845.61 861.916" fill="#fcbe13" stroke-width="0"/>
          <polygon points="845.61 861.916 729.161 -16.462 657.841 -12.955 845.61 861.916" fill="#fdd248" stroke-width="0"/>
        </g>
        <circle cx="842.051" cy="821.536" r="110.904" fill="#ffe048" stroke-width="0"/>
        <path d="M1684.103,844.329c0,465.052-376.999,842.051-842.051,842.051S0,1309.381,0,844.329" fill="#5783ff" stroke-width="0"/>
        <g>
          <g>
            <path d="M1790,894.822c-79.315-67.723-248.768-119.471-362.866-133.019-114.098-13.548-258.235,70.201-357.657,119.209-134.411,66.254-311.699,129.242-473.046-8.721-89.304-76.361-137.864,279.444-255.236,256.878l693.284,104.512,755.52-338.858Z" fill="#f5f5f5" stroke-width="0"/>
            <path d="M1748.512,959.494c-80.128-70.328-225.824-116.331-339.922-129.879-114.098-13.548-223.744,74.293-323.166,123.301-134.411,66.254-311.699,129.242-473.046-8.721-89.304-76.361-137.864,279.444-255.236,256.878l693.284,104.512,698.086-346.09Z" fill="#a0d6f2" stroke-width="0"/>
            <path d="M1722.887,1044.911c-80.128-70.328-215.79-123.108-330.684-122.024-129.345,1.22-226.065,92.938-325.486,141.946-134.411,66.254-311.699,129.242-473.046-8.721-89.304-76.361-137.864,279.444-255.236,256.878l693.284,104.512,691.168-372.591Z" fill="#a0d6f2" stroke-width="0"/>
            <path d="M1728.242,1227.006c-80.128-70.328-185.212-210.934-299.31-224.483-114.098-13.548-223.744,74.293-323.166,123.301-134.411,66.254-311.699,129.242-473.046-8.721-89.304-76.361-137.864,279.444-255.236,256.878l693.284,104.512,657.474-251.487Z" fill="#a0d6f2" stroke-width="0"/>
            <path d="M1717.72,1323.387c-80.128-70.328-185.212-210.934-299.31-224.483-114.098-13.548-223.744,74.293-323.166,123.301-134.411,66.254-311.699,129.242-473.046-8.721-89.304-76.361-137.864,279.444-255.236,256.878l693.284,104.512,657.474-251.487Z" fill="#a0d6f2" stroke-width="0"/>
          </g>
          <g>
            <path d="M-24.085,840.725c87.655-48.98,279.685-85.658,381.876-71.817s193.627,60.708,273.171,131.799c102.596,91.693,151.972,230.368,262.083,314.114,85.062,64.695,195.391,91.333,302.77,97.241,198.685,10.933,403.641-47.969,542.361-179.935,0,0-520.579,750.473-973.797,610.91C240.957,1581.856-24.085,840.725-24.085,840.725Z" fill="#f5f5f5" stroke-width="0"/>
            <path d="M-11.069,907.634c89.086-29.715,260.864-82.847,355.542-70.679,94.678,12.167,188.186,70.1,256.779,134.781,67.16,63.33,107.853,147.819,171.001,214.739,135.765,143.874,322.212,191.56,473.82,187.654,161.657-4.165,273.924-31.59,411.551-67.812,0,0-759.156,541.663-950.374,487.27C519.547,1740.192-11.069,907.634-11.069,907.634Z" fill="#9fb4ff" stroke-width="0"/>
            <path d="M12.296,984.792c89.086-29.715,178.732-72.944,273.41-60.776,94.678,12.167,187.452,51.107,256.045,115.789,67.16,63.33,108.291,147.408,171.001,214.739,96.743,103.872,288.758,187.89,436.624,183.893,203.169-5.491,308.979-13.197,446.607-49.42,0,0-616.749,425.423-783.854,377.888C600.311,1706.652,12.296,984.792,12.296,984.792Z" fill="#9fb4ff" stroke-width="0"/>
            <path d="M-16.437,1115.121c86.835-35.763,173.3-85.046,268.59-79.409,95.29,5.637,190.519,38.114,263.392,97.932,71.35,58.568,118.159,139.623,185.345,202.489,103.648,96.984,304.466,172.953,452.146,164.536,217.064-12.37,291.658-34.947,426.473-80.536,0,0-574.316,456.273-744.291,420.326C619.764,1794.895-16.437,1115.121-16.437,1115.121Z" fill="#9fb4ff" stroke-width="0"/>
            <path d="M-51.513,1209.825c86.835-35.763,173.3-85.046,268.59-79.409,95.29,5.637,190.519,38.114,263.392,97.932,71.35,58.568,118.159,139.623,185.345,202.489,103.648,96.984,305.963,169.039,451.064,140.3,216.06-42.794,276.565,108.738,411.38,63.149,0,0-558.141,336.825-728.116,300.878-215.454-45.565-851.655-725.339-851.655-725.339Z" fill="#9fb4ff" stroke-width="0"/>
          </g>
        </g>
      </g>
      <path d="M1104.349,856.901c-5.402-15.601-23.229-27.94-43.779-28.566-25.131-.778-50.542,16.012-54.885,36.259-6.699-11.798-26.557-15.839-42.115-10.653-15.58,5.186-26.535,17.611-31.116,30.597-4.754,13.419-3.306,27.832,3.565,40.019-4.559,3.803-10.004,7.196-13.851,12.036M1286.183,771.634c-5.964-6.979-13.981-12.403-23.207-14.974-22.991-6.439-50.002,5.791-58.321,26.384-3.652-14.067-21.111-22.797-36.54-20.722-15.45,2.053-28.199,12.835-35.222,25.649-7.217,13.224-8.968,28.89-5.229,43.39-9.097,5.553-20.657,8.859-23.315,25.541M922.168,936.593c.8-2.831.735-8.06-3.717-17.352-8.017-16.725-23.575-32.499-44.276-38.441-20.701-5.921-45.918,1.08-51.601,17.395,5.921-21.825-20.765-47.517-48.619-46.782-27.853.735-46.501,27.637-33.968,48.986-15.212-14.348-42.266-20.939-60.547-12.014-3.241,1.577-5.985,3.673-8.189,6.137-1.513-11.863-7.023-24.158-17.373-33.472-13.246-11.906-35.135-16.617-46.091-7.52,13.375-12.792,3.673-40.58-17.676-50.585-21.328-10.004-46.372,1.469-45.594,20.895-5.661-15.601-23.402-30.381-40.861-31.138-8.579-.367-15.882,3.458-19.988,9.227-.951-.108-1.88-.173-2.831-.194,10.221-17.006,1.426-43.887-18.951-58.04-20.398-14.154-49.289-13.419-62.448,1.556,0-13.7-14.499-27.788-29.776-31.699-15.299-3.911-30.23.842-40.148,9.486-10.242,8.924-15.839,22.04-15.904,36.151-6.72.994-14.261.713-20.528,4.495.8.886,1.513,1.707,2.182,2.441-1.837.022-3.717.087-5.575.151,1.08-1.059,2.204-1.902,3.393-2.593-2.982-3.436-6.699-8.038-10.804-13.851-10.696-15.126-28.674-28.091-50.088-30.468-21.392-2.377-45.097,8.752-47.971,25.779,2.204-22.516-28.415-43.368-55.75-37.987s-41.229,35.027-25.282,53.978c-17.395-11.582-45.183-13.57-61.714-1.707-16.53,11.863-14.65,37.339,5.445,45.615-18.518.713-33.839,13.289-37.469,27.529-5.748,3.155-9.443,6.331-9.443,9.486,0,3.933,5.705,7.844,13.894,11.755l.022.022c12.9,6.137,31.959,12.273,44.751,18.41,6.461,3.068,11.323,6.158,12.965,9.248,4.927-1.469,9.94-2.917,14.996-4.387,73.404-21.155,158.994-41.207,223.863-41.877,8.103-.13,15.882.086,23.272.648,3.673.281,7.239.648,10.696,1.08,41.25,5.316,82.285,19.275,121.137,38.744.108-.843.194-1.707.238-2.572,1.167.303,2.334.54,3.522.735,0,0,.303,1.383.627,4.062,48.619,24.958,93.694,58.364,131.271,93.802,12.058,11.366,23.251,23.423,33.882,35.935,48.597,57.176,85.31,123.903,137.105,178.809,135.765,143.869,322.224,191.558,473.829,187.648,61.346-1.577,115.583-6.504,166.795-14.002,23.034-25.368,44.405-52.271,63.939-80.556-89.826,26.967-186.113,37.728-280.995,32.499-70.94-3.911-143.156-16.855-208.543-43.865-33.579-13.851-65.365-31.419-94.234-53.373-6.871-5.229-13.527-10.675-19.945-16.314-20.939-18.346-39.652-38.722-57.111-60.223-19.426-23.92-37.296-49.246-54.929-74.83-12.49-18.086-24.828-36.324-37.534-54.259,86.045,29.733,172.781,17.287,251.997-9.616,3.133-1.08,6.245-2.161,9.357-3.285,35.351-12.598,69.125-27.896,100.544-43.39,20.333-10.026,41.099-21.673,62.232-33.731,1.037-.605,2.096-1.21,3.155-1.815,47.517-27.183,96.957-56.203,147.715-73.49,14.651-5.013,29.388-9.011,44.254-11.733h.021c21.717-3.976,43.671-5.164,65.798-2.528,21.522,2.55,44.146,6.266,67.245,11.085,8.968,1.859,18.022,3.89,27.097,6.094,16.466,3.976,33.061,8.514,49.526,13.549,3.263-1.08,6.245-2.593,8.838-4.538-.519,2.42-.346,4.948.367,7.412,16.92,5.381,33.666,11.323,50.002,17.784.151-.043.302-.108.454-.173,1.037-3.565,7.066-7.153,15.234-10.718,0-.022.022-.022.022-.022,21.198-9.313,56.722-18.648,56.722-28.026,0-2.723-2.744-5.445-7.174-8.168,7.023-6.331,10.502-15.536,8.06-24.915-3.436-13.246-19.577-25.174-34.962-24.634,9.14-15.234.778-38.031-18.086-49.224-18.842-11.193-45.334-9.119-57.176,4.516-.151-11.842-13.613-23.294-27.68-25.909-14.067-2.593-27.68,2.269-36.648,10.243-8.816,7.822-13.765,18.735-14.11,30.273-14.499-5.834-35.135-6.029-43.238,1.318,0,0,2.485-3.738-8.384-13.592-10.869-9.854-26.038-17.503-40.84-17.308-14.801.195-27.745,10.199-25.39,22.602-4.17-16.25-29.69-28.415-46.48-22.17-16.79,6.245-28.303,29.507-13.005,41.607-12.202-10.779-23.665-6.623-31.681,3.295-.432.519-.8,1.08-1.124,1.642M664.964,918.939c0-.022-.022-.022-.022-.022-.043,0-.108-.022-.151-.022,0,0,.022,0,.065-.022.108,0,.281-.022.54-.108,0,.086.043.173.087.259,0,.065,0,.13.043.195-.194-.087-.367-.195-.562-.281ZM1297.226,803.528c.108-1.167.151-2.312.151-3.457,1.534.821,3.198,1.469,4.948,1.945-1.815.324-3.522.821-5.099,1.512Z" fill="#f5f5f5" stroke-width="0"/>
      <text transform="translate(128.011 1025.27) rotate(-12.554)" fill="#f5f5f5" filter="url(#drop-shadow-1)" font-family="PlaypenSans-Regular, &apos;Playpen Sans&apos;" font-size="155.838"><tspan x="0" y="0">R</tspan></text>
      <text transform="translate(221.167 1001.3) rotate(-2.39)" fill="#f5f5f5" font-family="PlaypenSans-Regular, &apos;Playpen Sans&apos;" font-size="155.838"><tspan x="0" y="0">a</tspan></text>
      <text transform="translate(307.904 997.074) rotate(20.98)" fill="#f5f5f5" font-family="PlaypenSans-Regular, &apos;Playpen Sans&apos;" font-size="155.838"><tspan x="0" y="0">d</tspan></text>
      <text transform="translate(383.065 1027.858) rotate(31.105)" fill="#f5f5f5" font-family="PlaypenSans-Regular, &apos;Playpen Sans&apos;" font-size="155.838"><tspan x="0" y="0">i</tspan></text>
      <text transform="translate(418.475 1046.935) rotate(39.511)" fill="#f5f5f5" font-family="PlaypenSans-Regular, &apos;Playpen Sans&apos;" font-size="155.838"><tspan x="0" y="0">a</tspan></text>
      <text transform="translate(486.618 1102.973) rotate(51.575)" fill="#f5f5f5" font-family="PlaypenSans-Regular, &apos;Playpen Sans&apos;" font-size="155.838"><tspan x="0" y="0">n</tspan></text>
      <text transform="translate(542.33 1176.093) rotate(54.345)" fill="#f5f5f5" font-family="PlaypenSans-Regular, &apos;Playpen Sans&apos;" font-size="155.838"><tspan x="0" y="0">t</tspan></text>
      <text transform="translate(580.306 1229.848) rotate(52.219)" fill="#f5f5f5" font-family="PlaypenSans-Regular, &apos;Playpen Sans&apos;" font-size="155.838"><tspan x="0" y="0"> </tspan></text>
      <text transform="translate(617.323 1280.265) rotate(45.36)" fill="#f5f5f5" font-family="PlaypenSans-Regular, &apos;Playpen Sans&apos;" font-size="155.838"><tspan x="0" y="0">R</tspan></text>
      <text transform="translate(701.4 1363.153) rotate(36.589)" fill="#f5f5f5" font-family="PlaypenSans-Regular, &apos;Playpen Sans&apos;" font-size="155.838"><tspan x="0" y="0">e</tspan></text>
      <text transform="translate(783.742 1423.196) rotate(28.256)" fill="#f5f5f5" font-family="PlaypenSans-Regular, &apos;Playpen Sans&apos;" font-size="155.838"><tspan x="0" y="0">a</tspan></text>
      <text transform="translate(877.482 1471.287) rotate(22.12)" fill="#f5f5f5" font-family="PlaypenSans-Regular, &apos;Playpen Sans&apos;" font-size="155.838"><tspan x="0" y="0">l</tspan></text>
      <text transform="translate(927.98 1494.162) rotate(14.653)" fill="#f5f5f5" font-family="PlaypenSans-Regular, &apos;Playpen Sans&apos;" font-size="155.838"><tspan x="0" y="0">m</tspan></text>
      <text transform="translate(1074.565 1528.925) rotate(6.359)" fill="#f5f5f5" font-family="PlaypenSans-Regular, &apos;Playpen Sans&apos;" font-size="155.838"><tspan x="0" y="0">s</tspan></text>
    </g>
  </g>
</svg>